 <svg  version="1.0" xmlns="http://www.w3.org/2000/svg"  width="300.000000pt" height="344.000000pt" viewBox="0 0 300.000000 344.000000"  preserveAspectRatio="xMidYMid meet">  <g transform="translate(0.000000,344.000000) scale(0.100000,-0.100000)" fill="#ffffff" stroke="none"> <path d="M1406 3249 c-42 -49 -59 -90 -60 -139 -1 -63 23 -93 111 -136 90 -45 113 -75 113 -149 0 -57 -32 -133 -82 -199 -29 -38 -27 -37 26 14 82 79 111 131 110 201 -1 80 -24 113 -109 161 -98 55 -115 76 -115 146 0 38 7 70 20 95 24 45 20 47 -14 6z"/> <path d="M1765 3168 c-45 -35 -85 -107 -85 -151 0 -41 14 -58 133 -164 73 -65 56 -160 -47 -271 -51 -55 -56 -62 -28 -46 56 32 144 116 158 151 18 43 18 117 -1 153 -8 16 -43 53 -78 81 -76 64 -77 64 -77 117 0 49 19 101 49 131 28 28 11 27 -24 -1z"/> <path d="M1160 3123 c-40 -45 -60 -91 -60 -135 1 -58 25 -86 122 -142 57 -32 78 -68 78 -133 0 -59 -23 -111 -81 -183 l-43 -55 40 32 c132 104 172 200 124 298 -15 31 -38 53 -95 90 -64 41 -77 54 -85 87 -14 48 -4 99 26 143 31 46 15 45 -26 -2z"/> <path d="M1430 2347 c0 -8 9 -22 20 -32 35 -32 24 -40 -69 -53 -225 -30 -413 -123 -572 -281 -170 -170 -264 -377 -276 -613 l-6 -108 983 0 983 0 -6 98 c-9 135 -39 250 -97 367 -141 290 -421 492 -741 536 -73 10 -89 15 -89 29 0 10 7 23 15 30 8 7 15 19 15 26 0 11 -19 14 -80 14 -60 0 -80 -3 -80 -13z m214 -128 c258 -35 504 -186 645 -395 93 -138 151 -309 154 -451 l2 -68 -935 0 -935 0 -3 49 c-11 166 100 430 241 574 161 165 346 261 564 292 68 10 86 17 108 40 l27 28 26 -29 c23 -25 39 -31 106 -40z"/> <path d="M322 1218 c-32 -32 -5 -68 50 -68 28 0 38 -4 38 -16 0 -8 13 -29 29 -45 l29 -29 989 0 988 1 52 25 c29 14 55 33 58 44 4 14 17 20 47 22 48 3 70 27 52 55 -11 17 -79 18 -1166 21 -889 2 -1157 -1 -1166 -10z m2228 -35 c0 -12 -65 -62 -94 -73 -25 -9 -288 -11 -1385 -10 l-583 0 -34 37 c-19 20 -34 41 -34 45 0 4 479 8 1065 8 586 0 1065 -3 1065 -7z"/> <path d="M798 1042 c-10 -2 -18 -9 -18 -15 0 -22 205 -282 230 -292 72 -29 266 -129 311 -159 32 -23 63 -36 83 -36 17 0 81 18 141 41 131 48 253 79 315 79 61 0 92 -21 225 -151 l112 -109 20 23 c59 64 94 150 107 261 6 49 6 50 -40 90 -26 23 -73 64 -104 92 -72 65 -127 97 -227 133 -149 55 -326 64 -488 26 -70 -17 -125 -17 -343 1 -90 8 -125 -9 -120 -58 6 -58 90 -93 248 -103 136 -9 170 -15 170 -29 0 -24 -29 -38 -103 -48 -69 -10 -77 -9 -161 20 -83 29 -95 37 -191 126 -103 96 -134 116 -167 108z m982 -37 c169 -32 266 -80 405 -199 l107 -91 -5 -59 c-6 -63 -62 -191 -84 -191 -6 0 -55 42 -109 93 -57 54 -120 103 -151 119 -48 23 -62 25 -121 20 -71 -7 -172 -35 -311 -86 -47 -17 -94 -31 -106 -31 -11 0 -43 15 -70 33 -28 19 -93 54 -145 78 -186 86 -191 90 -248 164 -29 39 -60 83 -68 98 -14 27 -14 28 3 18 10 -5 50 -39 88 -75 64 -60 154 -116 187 -116 8 0 32 -9 53 -21 33 -17 51 -19 104 -14 101 9 150 46 136 102 -9 38 -56 51 -196 56 -138 5 -209 25 -209 58 0 28 43 34 135 21 122 -18 227 -14 340 13 119 28 165 30 265 10z"/> <path d="M900 1021 c0 -17 171 -169 202 -180 31 -11 31 -11 13 9 -10 12 -38 29 -61 39 -52 24 -77 59 -68 96 5 18 2 30 -7 36 -18 12 -79 12 -79 0z"/> <path d="M716 1004 c-24 -23 -20 -30 32 -65 26 -18 92 -78 147 -133 90 -91 109 -105 185 -137 47 -20 96 -39 110 -43 29 -7 -104 61 -166 85 -32 13 -59 39 -124 120 -46 57 -95 123 -109 146 -28 45 -50 53 -75 27z"/> <path d="M1137 848 c21 -24 93 -62 93 -50 0 16 -56 60 -83 64 -27 5 -27 5 -10 -14z"/> <path d="M2337 668 c-7 -94 -37 -174 -88 -232 -41 -47 -75 -59 -86 -30 -8 22 -23 -2 -23 -38 0 -22 31 -51 214 -197 190 -152 236 -184 236 -166 0 20 -51 68 -204 190 -97 77 -176 144 -176 149 0 4 19 27 43 50 49 49 90 127 107 209 8 35 18 57 27 57 7 0 66 -35 131 -77 64 -42 187 -122 273 -179 208 -136 209 -136 209 -106 0 12 -102 83 -321 227 -177 116 -325 211 -329 213 -4 1 -10 -30 -13 -70z"/> </g> </svg> 