 <svg  version="1.0" xmlns="http://www.w3.org/2000/svg"  width="300.000000pt" height="375.000000pt" viewBox="0 0 300.000000 375.000000"  preserveAspectRatio="xMidYMid meet">  <g transform="translate(0.000000,375.000000) scale(0.100000,-0.100000)" fill="#ffffff" stroke="none"> <path d="M760 3103 c-93 -15 -274 -97 -287 -129 -3 -8 20 -47 53 -91 79 -104 79 -102 60 -116 -15 -11 -11 -92 49 -986 36 -536 65 -987 65 -1002 0 -65 60 -89 295 -116 200 -24 910 -24 1110 0 160 19 253 40 277 65 14 14 20 69 37 327 115 1735 113 1699 97 1711 -43 31 -319 53 -761 61 l-340 6 -86 82 c-137 132 -294 196 -469 193 -41 0 -86 -3 -100 -5z m250 -64 c104 -28 183 -73 266 -151 81 -78 147 -184 119 -194 -21 -8 -45 13 -45 41 0 34 -58 113 -119 161 -31 24 -61 44 -68 44 -6 0 -45 17 -86 38 -91 47 -187 70 -227 55 -16 -6 -39 -8 -53 -6 -37 7 -144 -24 -214 -62 -49 -27 -62 -31 -67 -19 -13 34 143 103 254 113 95 9 147 4 240 -20z m-44 -40 c81 -25 144 -55 144 -70 0 -19 -68 -111 -73 -97 -7 19 -17 5 -22 -31 -2 -17 -13 -45 -25 -61 -21 -29 -25 -31 -79 -28 l-56 3 -6 140 c-4 88 -3 145 3 153 14 17 35 15 114 -9z m-153 4 c3 -5 8 -69 12 -144 l7 -137 -36 0 c-30 0 -39 5 -46 24 -11 29 -34 33 -25 4 5 -16 2 -20 -17 -20 -32 0 -37 5 -102 93 -33 46 -55 85 -52 93 15 38 243 114 259 87z m415 -133 c35 -29 71 -69 83 -92 l21 -42 -22 -18 c-18 -14 -40 -18 -109 -18 l-86 0 30 24 c17 13 26 28 22 33 -5 4 -21 -6 -37 -23 -25 -29 -33 -32 -82 -30 l-55 1 42 65 c23 36 54 84 68 108 15 23 35 42 45 42 9 0 45 -23 80 -50z m886 -91 c257 -13 332 -20 329 -34 -1 -6 -53 -15 -115 -22 -120 -12 -830 -35 -851 -27 -7 2 -20 25 -28 49 l-17 45 230 0 c127 0 330 -5 452 -11z m-1464 -79 c18 -10 250 -310 250 -324 0 -3 -35 -6 -78 -6 -44 0 -101 -7 -127 -15 -27 -8 -50 -13 -52 -11 -2 1 -7 72 -13 157 -6 85 -12 166 -15 182 -5 29 4 33 35 17z m1785 -132 c-6 -138 -14 -238 -19 -238 -2 0 -21 6 -43 14 -76 27 -219 36 -561 36 l-342 0 7 43 c5 23 8 83 8 133 l-1 92 246 6 c346 9 569 24 703 45 4 0 5 -59 2 -131z m43 30 c-4 -57 -14 -229 -23 -383 -13 -234 -43 -678 -71 -1065 -8 -108 -23 -147 -66 -164 -18 -8 -139 -24 -268 -36 -282 -27 -665 -30 -855 -7 -70 9 -124 11 -130 6 -5 -5 -15 -9 -22 -9 -15 0 -53 -36 -53 -50 0 -13 -17 -13 -25 0 -4 6 -1 18 7 27 8 11 9 14 1 10 -7 -5 -16 1 -23 13 -12 23 -1 27 29 10 14 -7 24 -4 42 10 22 20 22 21 3 35 -10 8 -47 28 -80 45 -67 33 -88 64 -88 129 0 20 -6 41 -13 46 -16 12 -8 41 13 49 17 7 19 -15 2 -32 -9 -9 -7 -12 9 -12 26 0 45 -22 38 -43 -8 -19 30 -47 63 -47 13 0 52 11 87 25 l63 26 113 -76 c84 -57 118 -75 134 -70 32 11 49 8 101 -17 l49 -23 -185 -6 c-102 -3 -187 -6 -190 -7 -2 -1 1 -7 8 -14 17 -17 563 -24 778 -9 204 14 343 30 365 42 35 18 41 59 93 614 14 143 30 334 36 425 40 634 42 660 58 660 4 0 4 -46 0 -102z m-1693 82 c7 0 16 -10 20 -22 l7 -23 7 25 c6 20 9 11 15 -41 14 -117 8 -120 -59 -27 -75 103 -75 102 -35 95 18 -4 38 -7 45 -7z m98 -6 c9 -3 13 -13 9 -26 -3 -14 -1 -19 6 -14 7 4 12 14 12 22 0 8 7 14 15 14 21 0 20 -3 -22 -67 l-38 -57 -6 60 c-7 73 -5 79 24 68z m112 -26 l-6 -23 17 23 c9 12 23 22 30 22 21 0 17 -10 -11 -32 -44 -34 -27 -41 19 -8 24 18 48 30 53 27 5 -3 26 -2 46 3 70 15 36 -5 -96 -58 -183 -74 -175 -75 -122 2 47 66 82 88 70 44z m285 -8 c-25 -20 -25 -20 -3 -20 13 0 28 9 35 20 15 24 43 26 52 4 15 -39 5 -140 -18 -190 -13 -28 -29 -55 -35 -58 -8 -5 -351 76 -420 100 -23 7 29 35 175 94 71 28 135 54 143 57 9 4 12 2 7 -5 -10 -16 3 -15 34 3 38 22 60 18 30 -5z m144 -11 c9 -47 7 -118 -5 -185 -19 -103 -93 -254 -124 -254 -12 0 -10 10 10 50 15 30 25 66 25 93 0 29 9 60 25 89 33 60 48 134 37 186 -5 22 -7 43 -4 47 14 14 30 2 36 -26z m-510 -184 c14 -14 33 -25 43 -25 15 0 14 3 -6 19 -19 15 -1 12 105 -14 71 -18 142 -35 158 -39 21 -5 26 -10 17 -15 -9 -6 -1 -11 23 -15 42 -8 50 -36 11 -36 -14 0 -25 -4 -25 -10 0 -5 9 -10 19 -10 29 0 34 -15 20 -55 -14 -39 -21 -42 -39 -20 -7 8 -19 15 -28 15 -13 0 -12 -3 3 -20 18 -20 17 -20 -11 -20 -44 0 -74 11 -74 26 0 7 -9 18 -20 24 -25 13 -26 3 -3 -23 17 -18 17 -19 -12 -15 -24 2 -44 21 -97 88 -96 119 -131 170 -119 170 6 0 21 -11 35 -25z m1333 -109 c127 -16 163 -27 163 -51 0 -33 -98 -63 -280 -86 -129 -16 -740 -24 -740 -10 0 6 18 48 41 93 l41 81 326 -6 c195 -3 377 -12 449 -21z m-1284 -36 c35 -47 36 -50 17 -60 -33 -18 -219 20 -265 54 -15 11 -17 18 -9 26 14 14 90 27 164 29 56 1 56 1 93 -49z m-221 -39 c77 -35 171 -55 338 -73 69 -7 114 -14 101 -16 -42 -6 -252 18 -335 39 -72 18 -176 62 -176 74 0 8 4 7 72 -24z m-68 -13 c3 -13 14 -156 26 -318 38 -542 60 -835 66 -882 6 -52 -7 -64 -27 -26 -12 22 -18 105 -63 788 -14 212 -28 402 -30 423 -3 27 0 37 10 37 7 0 16 -10 18 -22z m1732 -115 c-3 -49 -8 -142 -11 -208 -3 -66 -8 -142 -12 -169 -5 -48 -6 -49 -22 -29 -20 25 -284 205 -358 244 -94 50 -141 35 -207 -66 -50 -75 -56 -76 -56 -10 0 31 -4 65 -10 75 -16 30 -66 40 -200 40 -176 0 -281 10 -272 25 4 6 30 32 58 57 l51 45 329 6 c339 6 481 19 619 56 105 29 98 34 91 -66z m-1557 61 c17 -4 31 -10 31 -14 0 -4 -31 -28 -70 -54 -70 -46 -70 -46 -70 -21 0 35 26 82 47 88 28 7 29 7 62 1z m494 -13 c-9 -11 -20 -18 -25 -15 -4 3 -8 2 -8 -3 0 -4 -8 -18 -18 -31 l-18 -23 -2 26 c-1 19 4 28 21 34 12 5 25 7 28 5 4 -2 9 3 13 11 3 8 10 15 16 15 5 0 2 -9 -7 -19z m-403 -8 c-1 -12 -191 -135 -198 -128 -4 4 0 10 8 15 8 5 51 34 95 64 78 55 95 64 95 49z m128 -27 c15 -8 42 -35 60 -60 76 -105 76 -159 0 -171 -24 -4 -90 -32 -147 -61 -57 -30 -112 -54 -122 -54 -17 0 -75 63 -98 107 -12 24 -15 92 -3 109 7 11 132 95 187 126 37 21 87 23 123 4z m86 -15 c12 -13 14 -21 6 -26 -6 -4 -12 -5 -13 -4 -1 2 -11 14 -21 27 -16 18 -16 22 -4 22 8 0 23 -9 32 -19z m106 2 c0 -13 -64 -73 -77 -73 -22 0 -15 17 22 49 34 30 55 39 55 24z m428 -159 c12 -8 22 -22 22 -31 0 -14 -10 -15 -77 -9 -43 3 -143 9 -223 13 -105 4 -153 10 -172 21 -16 9 -28 20 -28 24 0 5 102 5 228 2 169 -5 233 -10 250 -20z m302 -27 c19 -11 82 -53 140 -92 58 -40 120 -80 138 -89 72 -37 89 -83 56 -149 -46 -90 -245 -337 -272 -337 -9 0 -54 17 -100 37 -78 35 -83 39 -77 63 19 72 17 100 -8 142 -31 53 -69 89 -127 121 -25 14 -46 31 -48 39 -1 8 10 30 25 50 15 20 55 71 87 115 110 145 109 145 186 100z m-761 3 c15 -8 18 -18 13 -57 -6 -58 -8 -62 -27 -37 -14 18 -21 104 -9 104 3 0 13 -4 23 -10z m378 -37 l92 -6 3 -46 c5 -76 -26 -160 -60 -161 -7 0 -62 25 -122 55 -60 30 -119 55 -129 55 -11 0 -36 -20 -58 -45 l-37 -45 -19 36 c-16 30 -18 48 -12 107 l7 70 122 -7 c66 -3 162 -9 213 -13z m-467 -29 c0 -22 -38 -82 -58 -93 -10 -5 -62 -26 -117 -46 -55 -21 -121 -48 -147 -61 -54 -27 -62 -17 -24 30 20 24 312 184 339 186 4 0 7 -7 7 -16z m-362 -97 c3 -34 0 -57 -7 -61 -7 -5 -11 8 -11 41 0 26 -3 59 -6 73 -6 20 -4 23 6 13 7 -7 15 -37 18 -66z m455 -8 l47 -81 -21 -34 c-11 -19 -24 -34 -27 -34 -10 0 -92 157 -92 176 0 23 19 54 33 54 7 0 33 -37 60 -81z m-105 -48 c15 -16 39 -53 55 -83 l27 -54 -51 -85 c-47 -77 -50 -88 -46 -134 2 -27 6 -56 8 -63 5 -16 -134 -92 -168 -92 -31 0 -63 46 -127 183 -81 172 -83 203 -11 247 45 28 244 109 268 110 11 0 31 -13 45 -29z m480 -55 c127 -64 177 -94 206 -126 21 -23 36 -44 33 -46 -2 -2 -39 17 -83 42 -43 25 -134 72 -202 106 -105 51 -142 78 -142 102 0 14 29 1 188 -78z m-214 52 c10 -41 7 -53 -33 -106 -22 -29 -77 -111 -122 -182 -85 -133 -99 -143 -99 -69 0 26 15 61 55 127 77 127 166 252 180 252 7 0 15 -10 19 -22z m255 -154 c91 -47 174 -93 184 -101 26 -24 21 -55 -20 -114 -211 -311 -225 -329 -254 -329 -25 0 -180 69 -264 117 -130 75 -135 107 -45 255 74 122 155 234 178 248 32 18 56 10 221 -76z m676 -112 c-3 -3 -12 1 -20 9 -13 13 -13 18 3 39 l17 25 3 -33 c2 -19 1 -37 -3 -40z m-79 -65 c-18 -29 -45 -75 -59 -104 -37 -72 -70 -96 -127 -90 -35 3 -155 53 -231 94 -3 2 -34 -50 -69 -116 -58 -109 -115 -189 -126 -178 -3 2 13 31 34 63 22 33 58 93 81 134 23 41 52 88 65 103 l22 28 85 -45 c90 -48 157 -70 183 -60 8 3 48 57 87 120 40 62 76 111 80 108 5 -2 -7 -28 -25 -57z m34 -144 c-12 -92 -25 -174 -30 -184 -11 -19 -45 -34 -110 -49 -56 -12 -274 -12 -245 0 11 5 61 9 112 9 106 1 184 15 212 39 17 14 24 46 41 177 22 177 31 220 37 192 3 -9 -5 -92 -17 -184z m-1464 85 c17 -32 14 -40 -15 -45 -15 -2 -18 5 -19 43 -2 50 9 51 34 2z m4 -108 c0 -80 20 -151 50 -181 15 -15 52 -35 84 -44 31 -9 56 -20 56 -25 0 -9 -90 14 -121 31 -38 20 -67 69 -78 132 -14 79 -14 137 -1 137 6 0 10 -22 10 -50z m1396 4 c-5 -17 -3 -23 4 -19 15 9 12 -22 -5 -56 -9 -16 -13 -33 -11 -38 8 -13 -25 -39 -59 -46 -17 -4 -80 -10 -142 -13 -96 -6 -114 -10 -127 -27 -9 -11 -16 -26 -16 -32 0 -9 -24 -13 -85 -13 -47 0 -85 2 -85 5 0 3 12 22 28 43 15 22 45 76 67 121 46 96 42 95 170 37 44 -20 93 -36 108 -36 42 0 95 28 125 67 32 40 36 41 28 7z m-961 -86 c63 -45 115 -86 115 -91 0 -10 -4 -8 -125 78 -55 39 -105 74 -111 78 -7 4 -38 -5 -69 -18 -63 -28 -145 -44 -145 -28 0 6 21 14 48 17 26 4 70 18 97 31 28 13 55 22 62 20 7 -2 64 -41 128 -87z m-399 -149 l45 -30 -25 -30 c-29 -34 -41 -99 -31 -165 l7 -47 -39 7 c-61 12 -70 28 -78 139 -6 85 -5 97 9 97 20 0 56 30 56 47 0 19 6 17 56 -18z m1511 -74 c-3 -20 -2 -33 3 -30 4 3 7 -6 6 -20 0 -14 -5 -23 -11 -21 -6 2 -9 -13 -7 -38 3 -32 -1 -46 -17 -60 -30 -27 -35 -16 -21 46 9 40 9 64 1 93 -9 34 -8 42 6 53 32 23 46 15 40 -23z m-102 1 c29 -21 27 -119 -3 -167 -21 -35 -24 -37 -109 -48 -198 -25 -395 -33 -708 -27 -387 7 -392 7 -411 52 -16 39 -19 155 -3 171 6 6 25 7 52 2 140 -28 892 -17 1062 15 95 18 98 18 120 2z m-1342 -33 c-4 -21 -7 -70 -6 -110 2 -57 -1 -71 -11 -67 -40 15 -30 214 10 214 12 0 13 -8 7 -37z m51 -58 c18 -111 18 -125 3 -125 -18 0 -31 73 -21 125 7 41 11 41 18 0z"/> <path d="M860 2955 c0 -19 5 -35 10 -35 6 0 10 16 10 35 0 19 -4 35 -10 35 -5 0 -10 -16 -10 -35z"/> <path d="M1003 2915 c-13 -40 -2 -47 15 -10 14 31 15 45 4 45 -5 0 -13 -16 -19 -35z"/> <path d="M1060 2914 c-12 -31 -12 -34 -2 -34 8 0 32 43 32 55 0 16 -22 1 -30 -21z"/> <path d="M926 2888 c-14 -56 4 -62 22 -8 9 24 8 30 -2 30 -8 0 -16 -10 -20 -22z"/> <path d="M965 2823 c-3 -16 -10 -43 -14 -60 -5 -18 -6 -33 -2 -33 13 0 33 43 36 81 5 44 -12 53 -20 12z"/> <path d="M916 2799 c-9 -48 -6 -57 9 -24 16 35 19 55 6 55 -5 0 -11 -14 -15 -31z"/> <path d="M880 2765 c0 -22 4 -34 10 -30 6 3 10 17 10 30 0 13 -4 27 -10 30 -6 4 -10 -8 -10 -30z"/> <path d="M714 2960 c8 -43 26 -64 26 -29 0 14 -7 34 -16 45 -15 18 -15 17 -10 -16z"/> <path d="M781 2955 c0 -16 4 -39 9 -50 7 -16 9 -14 9 15 0 19 -4 42 -9 50 -7 11 -10 8 -9 -15z"/> <path d="M680 2897 c0 -14 20 -37 32 -37 4 0 2 11 -4 25 -12 27 -28 34 -28 12z"/> <path d="M640 2843 c0 -5 11 -21 25 -38 27 -33 34 -18 9 20 -16 24 -34 33 -34 18z"/> <path d="M740 2833 c0 -20 17 -50 24 -43 2 3 2 17 -1 33 -6 30 -23 37 -23 10z"/> <path d="M798 2805 c2 -19 8 -35 13 -35 10 0 12 31 3 54 -11 28 -20 17 -16 -19z"/> <path d="M1148 2815 c-27 -36 -22 -52 7 -25 24 22 34 50 18 50 -5 0 -16 -11 -25 -25z"/> <path d="M1205 2805 c-16 -13 -26 -27 -23 -30 7 -8 68 35 68 47 0 14 -14 8 -45 -17z"/> <path d="M1106 2805 c-3 -8 -12 -12 -20 -9 -8 3 -19 -3 -25 -15 -18 -33 -12 -48 9 -21 13 17 20 20 20 10 1 -11 6 -8 20 9 11 13 20 27 20 32 0 15 -17 10 -24 -6z"/> <path d="M1215 2766 c-16 -13 -28 -27 -25 -30 7 -7 70 33 70 45 0 15 -13 10 -45 -15z"/> <path d="M1245 2740 c-10 -11 -16 -22 -14 -25 7 -6 49 24 49 36 0 15 -16 10 -35 -11z"/> <path d="M780 2619 c12 -16 25 -28 27 -25 8 8 -25 56 -38 56 -6 0 -1 -14 11 -31z"/> <path d="M941 2600 c-12 -17 -18 -30 -13 -30 15 0 54 48 44 54 -5 3 -19 -8 -31 -24z"/> <path d="M1302 2597 c-12 -7 -20 -16 -16 -19 8 -9 64 12 64 23 0 13 -21 11 -48 -4z"/> <path d="M1135 2580 c-21 -14 -25 -20 -13 -20 25 0 68 22 62 31 -8 13 -16 11 -49 -11z"/> <path d="M1040 2560 c-14 -11 -19 -20 -12 -20 19 0 52 19 52 30 0 15 -12 12 -40 -10z"/> <path d="M1218 2568 c-27 -9 -39 -28 -19 -28 20 0 61 20 61 30 0 12 -6 12 -42 -2z"/> <path d="M948 2528 c-39 -14 -35 -29 4 -17 18 5 34 9 35 9 2 0 3 5 3 10 0 12 -6 12 -42 -2z"/> <path d="M1093 2532 c-47 -5 -41 -22 7 -22 22 0 40 4 40 9 0 14 -11 17 -47 13z"/> <path d="M1270 2520 c0 -5 16 -10 35 -10 19 0 35 5 35 10 0 6 -16 10 -35 10 -19 0 -35 -4 -35 -10z"/> <path d="M975 2491 c41 -17 87 -21 83 -8 -3 7 -25 13 -54 14 -33 2 -43 0 -29 -6z"/> <path d="M1110 2480 c0 -5 18 -10 40 -10 22 0 40 5 40 10 0 6 -18 10 -40 10 -22 0 -40 -4 -40 -10z"/> <path d="M1255 2470 c3 -5 22 -10 41 -10 19 0 34 5 34 10 0 6 -18 10 -41 10 -24 0 -38 -4 -34 -10z"/> <path d="M1176 2441 c14 -14 74 -24 74 -13 0 10 -33 22 -64 22 -12 0 -16 -3 -10 -9z"/> <path d="M952 2383 c15 -15 31 -24 34 -20 10 10 -26 47 -45 47 -11 0 -8 -7 11 -27z"/> <path d="M1060 2402 c0 -12 69 -32 75 -22 7 11 -2 16 -42 25 -18 3 -33 3 -33 -3z"/> <path d="M1010 2385 c35 -20 62 -19 36 0 -11 8 -29 15 -40 15 -19 -1 -19 -2 4 -15z"/> <path d="M1070 2341 c0 -10 45 -41 60 -41 20 0 9 20 -20 35 -34 17 -40 18 -40 6z"/> <path d="M1166 2341 c8 -9 45 -15 69 -12 6 1 3 6 -5 11 -19 13 -77 13 -64 1z"/> <path d="M1022 2308 c28 -36 48 -47 48 -25 0 15 -49 57 -65 57 -4 0 4 -14 17 -32z"/> <path d="M1190 2292 c0 -12 51 -34 59 -27 7 8 -28 35 -46 35 -7 0 -13 -4 -13 -8z"/> <path d="M1110 2275 c0 -12 55 -53 64 -48 4 3 -5 16 -20 29 -28 23 -44 29 -44 19z"/> <path d="M770 1999 c-9 -16 -7 -29 10 -64 11 -24 28 -49 36 -55 23 -20 17 5 -11 46 -28 41 -31 64 -13 82 9 9 9 12 0 12 -6 0 -16 -9 -22 -21z"/> <path d="M1907 1923 c-16 -15 -5 -21 29 -16 31 5 44 0 96 -36 33 -24 62 -40 65 -37 8 7 10 5 -61 55 -56 39 -111 53 -129 34z"/> <path d="M1900 1381 c0 -4 27 -21 61 -36 66 -29 96 -28 130 6 26 26 18 36 -13 15 -30 -21 -63 -20 -117 4 -47 22 -61 24 -61 11z"/> <path d="M1000 1695 c-25 -14 -55 -31 -67 -37 -21 -10 -31 -28 -17 -28 3 0 34 16 68 35 35 19 74 35 88 35 27 0 62 -32 73 -67 3 -13 11 -23 16 -23 13 0 12 6 -11 50 -34 66 -76 76 -150 35z"/> <path d="M820 1497 c0 -2 18 -50 41 -108 42 -109 58 -134 89 -142 20 -5 130 41 130 54 0 14 -18 11 -61 -12 -69 -35 -78 -28 -134 99 -27 61 -53 112 -57 112 -4 0 -8 -1 -8 -3z"/> <path d="M1246 1351 c-26 -29 -30 -81 -8 -121 14 -26 42 -47 107 -82 49 -27 93 -47 98 -45 6 2 -29 29 -77 61 -103 68 -127 106 -106 164 14 40 9 49 -14 23z"/> </g> </svg> 